<mxfile host="app.diagrams.net" modified="2023-10-15T22:02:22.738Z" agent="Mozilla/5.0 (Windows NT 10.0; Win64; x64) AppleWebKit/537.36 (KHTML, like Gecko) Chrome/117.0.0.0 Safari/537.36" version="22.0.4" etag="WIH01gzyf2RXIqF52rlO" type="github">
  <diagram name="Page-1" id="wph5eUbsOdm21mYznSUl">
    <mxGraphModel>
      <root>
        <mxCell id="0" />
        <mxCell id="1" parent="0" />
      </root>
    </mxGraphModel>
  </diagram>
</mxfile>
